  0
SECTION
  2
HEADER
  9
$ACADVER
  1
AC1014
  9
$HANDSEED
  5
FFFF
  9
$MEASUREMENT
 70
     1
  0
ENDSEC
  0
SECTION
  2
TABLES
  0
TABLE
  2
VPORT
  5
8
330
0
100
AcDbSymbolTable
 70
     4
  0
VPORT
  5
2E
330
8
100
AcDbSymbolTableRecord
100
AcDbViewportTableRecord
  2
*ACTIVE
 70
     0
 10
0.0
 20
0.0
 11
1.0
 21
1.0
 12
210.0
 22
148.5
 13
0.0
 23
0.0
 14
10.0
 24
10.0
 15
10.0
 25
10.0
 16
0.0
 26
0.0
 36
1.0
 17
0.0
 27
0.0
 37
0.0
 40
341.0
 41
1.24
 42
50.0
 43
0.0
 44
0.0
 50
0.0
 51
0.0
 71
     0
 72
   100
 73
     1
 74
     3
 75
     0
 76
     0
 77
     0
 78
     0
  0
ENDTAB
  0
TABLE
  2
LTYPE
  5
5
330
0
100
AcDbSymbolTable
 70
     1
  0
LTYPE
  5
14
330
5
100
AcDbSymbolTableRecord
100
AcDbLinetypeTableRecord
  2
BYBLOCK
 70
     0
  3

 72
    65
 73
     0
 40
0.0
  0
LTYPE
  5
15
330
5
100
AcDbSymbolTableRecord
100
AcDbLinetypeTableRecord
  2
BYLAYER
 70
     0
  3

 72
    65
 73
     0
 40
0.0
  0
LTYPE
  5
16
330
5
100
AcDbSymbolTableRecord
100
AcDbLinetypeTableRecord
  2
CONTINUOUS
 70
     0
  3
Solid line
 72
    65
 73
     0
 40
0.0
  0
ENDTAB
  0
TABLE
  2
LAYER
  5
2
100
AcDbSymbolTable
 70
2
  0
LAYER
  5
50
100
AcDbSymbolTableRecord
100
AcDbLayerTableRecord
  2
0
 70
0
  6
CONTINUOUS
  0
LAYER
  5
51
100
AcDbSymbolTableRecord
100
AcDbLayerTableRecord
  2
Layer_1
 70
0
  6
CONTINUOUS
  0
ENDTAB
  0
TABLE
  2
STYLE
  5
3
330
0
100
AcDbSymbolTable
 70
     1
  0
STYLE
  5
11
330
3
100
AcDbSymbolTableRecord
100
AcDbTextStyleTableRecord
  2
STANDARD
 70
     0
 40
0.0
 41
1.0
 50
0.0
 71
     0
 42
2.5
  3
txt
  4

  0
ENDTAB
  0
TABLE
  2
VIEW
  5
6
330
0
100
AcDbSymbolTable
 70
     0
  0
ENDTAB
  0
TABLE
  2
UCS
  5
7
330
0
100
AcDbSymbolTable
 70
     0
  0
ENDTAB
  0
TABLE
  2
APPID
  5
9
330
0
100
AcDbSymbolTable
 70
     2
  0
APPID
  5
12
330
9
100
AcDbSymbolTableRecord
100
AcDbRegAppTableRecord
  2
ACAD
 70
     0
  0
ENDTAB
  0
TABLE
  2
DIMSTYLE
  5
A
330
0
100
AcDbSymbolTable
 70
     1
  0
DIMSTYLE
105
27
330
A
100
AcDbSymbolTableRecord
100
AcDbDimStyleTableRecord
  2
ISO-25
 70
     0
  3

  4

  5

  6

  7

 40
1.0
 41
2.5
 42
0.625
 43
3.75
 44
1.25
 45
0.0
 46
0.0
 47
0.0
 48
0.0
140
2.5
141
2.5
142
0.0
143
0.03937007874016
144
1.0
145
0.0
146
1.0
147
0.625
 71
     0
 72
     0
 73
     0
 74
     0
 75
     0
 76
     0
 77
     1
 78
     8
170
     0
171
     3
172
     1
173
     0
174
     0
175
     0
176
     0
177
     0
178
     0
270
     2
271
     2
272
     2
273
     2
274
     3
340
11
275
     0
280
     0
281
     0
282
     0
283
     0
284
     8
285
     0
286
     0
287
     3
288
     0
  0
ENDTAB
  0
TABLE
  2
BLOCK_RECORD
  5
1
330
0
100
AcDbSymbolTable
 70
     1
  0
BLOCK_RECORD
  5
1F
330
1
100
AcDbSymbolTableRecord
100
AcDbBlockTableRecord
  2
*MODEL_SPACE
  0
BLOCK_RECORD
  5
1B
330
1
100
AcDbSymbolTableRecord
100
AcDbBlockTableRecord
  2
*PAPER_SPACE
  0
ENDTAB
  0
ENDSEC
  0
SECTION
  2
BLOCKS
  0
BLOCK
  5
20
330
1F
100
AcDbEntity
  8
0
100
AcDbBlockBegin
  2
*MODEL_SPACE
 70
     0
 10
0.0
 20
0.0
 30
0.0
  3
*MODEL_SPACE
  1

  0
ENDBLK
  5
21
330
1F
100
AcDbEntity
  8
0
100
AcDbBlockEnd
  0
BLOCK
  5
1C
330
1B
100
AcDbEntity
 67
     1
  8
0
100
AcDbBlockBegin
  2
*PAPER_SPACE
  1

  0
ENDBLK
  5
1D
330
1B
100
AcDbEntity
 67
     1
  8
0
100
AcDbBlockEnd
  0
ENDSEC
  0
SECTION
  2
ENTITIES
  0
SPLINE
  5
100
100
AcDbEntity
  8
Layer_1
 62
1
100
AcDbSpline
 70
8
 71
3
 72
8
 73
4
 74
0
 40
0
 40
0
 40
0
 40
0
 40
1
 40
1
 40
1
 40
1
 10
193.230712
 20
293.315562
 30
0.0
 10
199.335006
 20
285.379879
 30
0.0
 10
202.964675
 20
275.441792
 30
0.0
 10
202.964923
 20
264.656094
 30
0.0
  0
SPLINE
  5
101
100
AcDbEntity
  8
Layer_1
 62
1
100
AcDbSpline
 70
8
 71
3
 72
8
 73
4
 74
0
 40
0
 40
0
 40
0
 40
0
 40
1
 40
1
 40
1
 40
1
 10
202.964923
 20
264.656094
 30
0.0
 10
202.964923
 20
238.673635
 30
0.0
 10
181.901597
 20
217.610557
 30
0.0
 10
155.918888
 20
217.610557
 30
0.0
  0
SPLINE
  5
102
100
AcDbEntity
  8
Layer_1
 62
1
100
AcDbSpline
 70
8
 71
3
 72
8
 73
4
 74
0
 40
0
 40
0
 40
0
 40
0
 40
1
 40
1
 40
1
 40
1
 10
155.918888
 20
217.610557
 30
0.0
 10
145.133190
 20
217.610557
 30
0.0
 10
135.195104
 20
221.240225
 30
0.0
 10
127.259670
 20
227.344520
 30
0.0
  0
SPLINE
  5
103
100
AcDbEntity
  8
Layer_1
 62
1
100
AcDbSpline
 70
8
 71
3
 72
8
 73
4
 74
0
 40
0
 40
0
 40
0
 40
0
 40
1
 40
1
 40
1
 40
1
 10
118.357062
 20
236.325242
 30
0.0
 10
112.403869
 20
244.205911
 30
0.0
 10
108.873276
 20
254.018785
 30
0.0
 10
108.873276
 20
264.656119
 30
0.0
  0
SPLINE
  5
104
100
AcDbEntity
  8
Layer_1
 62
1
100
AcDbSpline
 70
8
 71
3
 72
8
 73
4
 74
0
 40
0
 40
0
 40
0
 40
0
 40
1
 40
1
 40
1
 40
1
 10
108.873276
 20
264.656119
 30
0.0
 10
108.873276
 20
290.638828
 30
0.0
 10
129.936353
 20
311.701905
 30
0.0
 10
155.919062
 20
311.701905
 30
0.0
  0
SPLINE
  5
105
100
AcDbEntity
  8
Layer_1
 62
1
100
AcDbSpline
 70
8
 71
3
 72
8
 73
4
 74
0
 40
0
 40
0
 40
0
 40
0
 40
1
 40
1
 40
1
 40
1
 10
155.919062
 20
311.701905
 30
0.0
 10
166.556397
 20
311.701905
 30
0.0
 10
176.369271
 20
308.171313
 30
0.0
 10
184.249691
 20
302.218368
 30
0.0
  0
SPLINE
  5
106
100
AcDbEntity
  8
Layer_1
 62
1
100
AcDbSpline
 70
8
 71
3
 72
8
 73
4
 74
0
 40
0
 40
0
 40
0
 40
0
 40
1
 40
1
 40
1
 40
1
 10
182.729417
 20
282.814741
 30
0.0
 10
186.384227
 20
277.527439
 30
0.0
 10
188.525037
 20
271.113225
 30
0.0
 10
188.525037
 20
264.199156
 30
0.0
  0
SPLINE
  5
107
100
AcDbEntity
  8
Layer_1
 62
1
100
AcDbSpline
 70
8
 71
3
 72
8
 73
4
 74
0
 40
0
 40
0
 40
0
 40
0
 40
1
 40
1
 40
1
 40
1
 10
188.525037
 20
264.199156
 30
0.0
 10
188.525037
 20
246.097615
 30
0.0
 10
173.850783
 20
231.423360
 30
0.0
 10
155.749241
 20
231.423360
 30
0.0
  0
SPLINE
  5
108
100
AcDbEntity
  8
Layer_1
 62
1
100
AcDbSpline
 70
8
 71
3
 72
8
 73
4
 74
0
 40
0
 40
0
 40
0
 40
0
 40
1
 40
1
 40
1
 40
1
 10
155.749241
 20
231.423360
 30
0.0
 10
148.835670
 20
231.423360
 30
0.0
 10
142.421954
 20
233.564169
 30
0.0
 10
137.134901
 20
237.218731
 30
0.0
  0
SPLINE
  5
109
100
AcDbEntity
  8
Layer_1
 62
1
100
AcDbSpline
 70
8
 71
3
 72
8
 73
4
 74
0
 40
0
 40
0
 40
0
 40
0
 40
1
 40
1
 40
1
 40
1
 10
128.304733
 20
246.274356
 30
0.0
 10
124.933704
 20
251.425493
 30
0.0
 10
122.973371
 20
257.583556
 30
0.0
 10
122.973371
 20
264.199156
 30
0.0
  0
SPLINE
  5
10a
100
AcDbEntity
  8
Layer_1
 62
1
100
AcDbSpline
 70
8
 71
3
 72
8
 73
4
 74
0
 40
0
 40
0
 40
0
 40
0
 40
1
 40
1
 40
1
 40
1
 10
122.973371
 20
264.199156
 30
0.0
 10
122.973371
 20
282.300946
 30
0.0
 10
137.647625
 20
296.975201
 30
0.0
 10
155.749415
 20
296.975201
 30
0.0
  0
SPLINE
  5
10b
100
AcDbEntity
  8
Layer_1
 62
1
100
AcDbSpline
 70
8
 71
3
 72
8
 73
4
 74
0
 40
0
 40
0
 40
0
 40
0
 40
1
 40
1
 40
1
 40
1
 10
155.749415
 20
296.975201
 30
0.0
 10
162.365762
 20
296.975201
 30
0.0
 10
168.524075
 20
295.014867
 30
0.0
 10
173.675460
 20
291.643092
 30
0.0
  0
LWPOLYLINE
  5
10c
100
AcDbEntity
  8
Layer_1
 62
1
100
AcDbPolyline
 90
2
 70
0
 10
118.358283
 20
236.325242
 30
0.0
 10
128.398431
 20
246.365391
 30
0.0
  0
LWPOLYLINE
  5
10d
100
AcDbEntity
  8
Layer_1
 62
1
100
AcDbPolyline
 90
2
 70
0
 10
137.134005
 20
237.219354
 30
0.0
 10
127.257654
 20
227.343002
 30
0.0
  0
LWPOLYLINE
  5
10e
100
AcDbEntity
  8
Layer_1
 62
1
100
AcDbPolyline
 90
2
 70
0
 10
193.230712
 20
293.315338
 30
0.0
 10
182.729293
 20
282.814417
 30
0.0
  0
LWPOLYLINE
  5
10f
100
AcDbEntity
  8
Layer_1
 62
1
100
AcDbPolyline
 90
2
 70
0
 10
173.674290
 20
291.641125
 30
0.0
 10
184.283496
 20
302.250330
 30
0.0
  0
LWPOLYLINE
  5
110
100
AcDbEntity
  8
Layer_1
 62
1
100
AcDbPolyline
 90
5
 70
0
 10
211.303435
 20
234.256656
 30
0.0
 10
259.763994
 20
262.235106
 30
0.0
 10
211.303435
 20
290.213558
 30
0.0
 10
211.303435
 20
234.256656
 30
0.0
 10
211.303435
 20
234.256656
 30
0.0
  0
LWPOLYLINE
  5
111
100
AcDbEntity
  8
Layer_1
 62
1
100
AcDbPolyline
 90
5
 70
0
 10
51.824489
 20
263.145123
 30
0.0
 10
100.285293
 20
235.166179
 30
0.0
 10
100.285293
 20
291.123329
 30
0.0
 10
51.824489
 20
263.145123
 30
0.0
 10
51.824489
 20
263.145123
 30
0.0
  0
LWPOLYLINE
  5
112
100
AcDbEntity
  8
Layer_1
 62
1
100
AcDbPolyline
 90
4
 70
0
 10
99.842362
 20
48.941262
 30
0.0
 10
99.945523
 20
49.119861
 30
0.0
 10
99.842362
 20
48.941262
 30
0.0
 10
99.842362
 20
48.941262
 30
0.0
  0
LWPOLYLINE
  5
113
100
AcDbEntity
  8
Layer_1
 62
1
100
AcDbPolyline
 90
6
 70
0
 10
181.533413
 20
209.852988
 30
0.0
 10
181.727272
 20
209.852988
 30
0.0
 10
153.360857
 20
160.717766
 30
0.0
 10
124.993948
 20
209.852988
 30
0.0
 10
181.533413
 20
209.852988
 30
0.0
 10
181.533413
 20
209.852988
 30
0.0
  0
LWPOLYLINE
  5
114
100
AcDbEntity
  8
Layer_1
 62
1
100
AcDbPolyline
 90
6
 70
0
 10
154.270874
 20
368.988876
 30
0.0
 10
182.638528
 20
319.854639
 30
0.0
 10
126.097575
 20
319.854075
 30
0.0
 10
125.903222
 20
319.853510
 30
0.0
 10
154.270874
 20
368.988735
 30
0.0
 10
154.270874
 20
368.988735
 30
0.0
  0
LWPOLYLINE
  5
115
100
AcDbEntity
  8
Layer_1
 62
1
100
AcDbPolyline
 90
5
 70
0
 10
144.989036
 20
280.810026
 30
0.0
 10
144.988991
 20
247.249563
 30
0.0
 10
174.052888
 20
264.029611
 30
0.0
 10
144.989036
 20
280.810026
 30
0.0
 10
144.989036
 20
280.810026
 30
0.0
  0
ENDSEC
  0
SECTION
  2
OBJECTS
  0
DICTIONARY
  5
C
330
0
100
AcDbDictionary
  3
ACAD_GROUP
350
D
  3
ACAD_MLINESTYLE
350
17
  0
DICTIONARY
  5
D
330
C
100
AcDbDictionary
  0
DICTIONARY
  5
1A
330
C
100
AcDbDictionary
  0
DICTIONARY
  5
17
330
C
100
AcDbDictionary
  3
STANDARD
350
18
  0
DICTIONARY
  5
19
330
C
100
AcDbDictionary
  0
ENDSEC
  0
EOF
